# Blender v2.91.0 OBJ File: 'ant_house.blend'
# www.blender.org
mtllib ant_house.mtl
o Cube_Cube.001
v -1.000000 -0.740000 1.000000
v -1.000000 0.740000 1.000000
v -1.000000 -0.740000 -1.000000
v -1.000000 0.740000 -1.000000
v 1.000000 -0.740000 1.000000
v 1.000000 0.740000 1.000000
v 1.000000 -0.740000 -1.000000
v 1.000000 0.740000 -1.000000
vt 0.375000 0.000000
vt 0.625000 0.000000
vt 0.625000 0.250000
vt 0.375000 0.250000
vt 0.625000 0.500000
vt 0.375000 0.500000
vt 0.625000 0.750000
vt 0.375000 0.750000
vt 0.625000 1.000000
vt 0.375000 1.000000
vt 0.125000 0.500000
vt 0.125000 0.750000
vt 0.875000 0.500000
vt 0.875000 0.750000
vn -1.0000 0.0000 0.0000
vn 0.0000 0.0000 -1.0000
vn 1.0000 0.0000 0.0000
vn 0.0000 0.0000 1.0000
vn 0.0000 -1.0000 0.0000
vn 0.0000 1.0000 0.0000
usemtl Base
s off
f 1/1/1 2/2/1 4/3/1 3/4/1
f 3/4/2 4/3/2 8/5/2 7/6/2
f 7/6/3 8/5/3 6/7/3 5/8/3
f 5/8/4 6/7/4 2/9/4 1/10/4
f 3/11/5 7/6/5 5/8/5 1/12/5
f 8/5/6 4/13/6 2/14/6 6/7/6
o Cube.001_Cube.002
v -1.500000 0.720000 1.500000
v 0.000000 3.120000 0.000000
v -1.500000 0.720000 -1.500000
v 1.500000 0.720000 1.500000
v 1.500000 0.720000 -1.500000
vt 0.375000 0.000000
vt 0.625000 0.250000
vt 0.375000 0.250000
vt 0.625000 0.500000
vt 0.375000 0.500000
vt 0.625000 0.750000
vt 0.375000 0.750000
vt 0.625000 1.000000
vt 0.375000 1.000000
vt 0.125000 0.500000
vt 0.125000 0.750000
vn -0.8480 0.5300 0.0000
vn 0.0000 0.5300 -0.8480
vn 0.8480 0.5300 0.0000
vn 0.0000 0.5300 0.8480
vn 0.0000 -1.0000 0.0000
usemtl Roof
s off
f 9/15/7 10/16/7 11/17/7
f 11/17/8 10/18/8 13/19/8
f 13/19/9 10/20/9 12/21/9
f 12/21/10 10/22/10 9/23/10
f 11/24/11 13/19/11 12/21/11 9/25/11
